<?xml version="1.0" encoding="UTF-8"?>
<!DOCTYPE svg PUBLIC "-//W3C//DTD SVG 1.1//EN" "http://www.w3.org/Graphics/SVG/1.1/DTD/svg11.dtd">
<!-- Creator: CorelDRAW 2019 (64 Bit) -->
<svg xmlns="http://www.w3.org/2000/svg" xml:space="preserve" width="500px" height="500px" version="1.1" style="shape-rendering:geometricPrecision; text-rendering:geometricPrecision; image-rendering:optimizeQuality; fill-rule:evenodd; clip-rule:evenodd"
viewBox="0 0 107.06 107.06"
 xmlns:xlink="http://www.w3.org/1999/xlink">
 <defs>
  <style type="text/css">
   <![CDATA[
    .fil0 {fill:#ffffff;fill-rule:nonzero}
   ]]>
  </style>
 </defs>
 <g id="Camada_x0020_1">
  <metadata id="CorelCorpID_0Corel-Layer"/>
  <path class="fil0" d="M87.6 66.48c0,-2.69 2.18,-4.87 4.86,-4.87 2.69,0 4.87,2.18 4.87,4.87l0 25.98c0,8.05 -6.55,14.6 -14.6,14.6l-68.13 0c-8.05,0 -14.6,-6.55 -14.6,-14.6l0 -68.13c0,-8.05 6.56,-14.6 14.6,-14.6l25.99 0c2.68,0 4.86,2.18 4.86,4.87 0,2.68 -2.18,4.86 -4.86,4.86l-25.99 0c-2.69,0 -4.87,2.17 -4.87,4.87l0 68.13c0,2.69 2.18,4.87 4.87,4.87l68.13 0c2.69,0 4.87,-2.18 4.87,-4.87l0 -25.98zm-1.43 -65.06l19.47 19.47c1.9,1.9 1.89,4.99 0,6.88l-48.67 48.67c-0.94,0.94 -2.2,1.42 -3.44,1.42l-19.46 0c-2.69,0 -4.87,-2.18 -4.87,-4.86l0 -19.47c0,-1.34 0.54,-2.56 1.42,-3.44l48.67 -48.67c1.9,-1.9 4.98,-1.89 6.88,0zm9.14 22.91l-12.58 -12.58 -43.8 43.8 0 12.58 12.59 0 43.79 -43.8z"/>
 </g>
</svg>
