<?xml version="1.0" encoding="UTF-8"?>
<!DOCTYPE svg PUBLIC "-//W3C//DTD SVG 1.1//EN" "http://www.w3.org/Graphics/SVG/1.1/DTD/svg11.dtd">
<!-- Creator: CorelDRAW 2019 (64 Bit) -->
<svg xmlns="http://www.w3.org/2000/svg" xml:space="preserve" width="500px" height="500px" version="1.1" style="shape-rendering:geometricPrecision; text-rendering:geometricPrecision; image-rendering:optimizeQuality; fill-rule:evenodd; clip-rule:evenodd"
viewBox="0 0 498.32 498.32"
 xmlns:xlink="http://www.w3.org/1999/xlink">
 <defs>
  <style type="text/css">
   <![CDATA[
    .fil0 {fill:none}
    .fil1 {fill:#ffffff;fill-rule:nonzero}
   ]]>
  </style>
 </defs>
 <g id="Camada_x0020_1">
  <metadata id="CorelCorpID_0Corel-Layer"/>
  <rect class="fil0" width="498.32" height="498.32"/>
  <path class="fil1" d="M45.3 135.92c-12.49,0 -22.65,-10.15 -22.65,-22.66 0,-12.5 10.14,-22.65 22.65,-22.65l90.61 0 0 -22.65c0,-37.48 30.52,-67.96 67.96,-67.96l90.61 0.01c37.45,0 67.94,30.53 67.94,67.93l0 22.67 90.6 0c12.51,0 22.65,10.15 22.65,22.65 0,12.51 -10.15,22.66 -22.65,22.66l-22.65 0 0 294.45c0,37.47 -30.5,67.95 -67.96,67.95l-226.5 0c-37.46,0 -67.96,-30.49 -67.95,-67.95l0.07 -294.45 -22.73 0zm226.51 90.6c0,-12.51 10.14,-22.65 22.65,-22.65 12.51,0 22.65,10.15 22.65,22.65l0 135.9c0,12.5 -10.14,22.65 -22.65,22.65 -12.51,0 -22.65,-10.15 -22.65,-22.65l0 -135.9zm-90.6 0c0,-12.51 10.14,-22.65 22.65,-22.65 12.51,0 22.65,10.15 22.65,22.65l0 135.9c0,12.5 -10.14,22.65 -22.65,22.65 -12.51,0 -22.65,-10.15 -22.65,-22.65l0 -135.9zm0.01 -135.91l135.89 0 0 -22.65c0,-12.54 -10.07,-22.63 -22.63,-22.65l-90.61 -0.09c-12.53,-0.02 -22.65,10.1 -22.65,22.74l0 22.65zm203.84 45.31c-90.62,0 -181.26,0 -271.89,0l0.01 294.45c0,12.5 10.15,22.65 22.73,22.65l226.5 0c12.52,0 22.65,-10.12 22.65,-22.65l0 -294.45z"/>
 </g>
</svg>
