<?xml version="1.0" encoding="UTF-8"?>
<!DOCTYPE svg PUBLIC "-//W3C//DTD SVG 1.1//EN" "http://www.w3.org/Graphics/SVG/1.1/DTD/svg11.dtd">
<!-- Creator: CorelDRAW 2019 (64 Bit) -->
<svg xmlns="http://www.w3.org/2000/svg" xml:space="preserve" width="500px" height="500px" version="1.1" style="shape-rendering:geometricPrecision; text-rendering:geometricPrecision; image-rendering:optimizeQuality; fill-rule:evenodd; clip-rule:evenodd"
viewBox="0 0 370.51 370.51"
 xmlns:xlink="http://www.w3.org/1999/xlink">
 <defs>
  <style type="text/css">
   <![CDATA[
    .fil0 {fill:#ffffff;fill-rule:nonzero}
   ]]>
  </style>
 </defs>
 <g id="Camada_x0020_1">
  <metadata id="CorelCorpID_0Corel-Layer"/>
  <path class="fil0" d="M168.41 16.84c0,-9.3 7.54,-16.84 16.84,-16.84 9.3,0 16.85,7.55 16.85,16.84l0 151.57 151.57 0c9.3,0 16.84,7.54 16.84,16.84 0,9.3 -7.55,16.85 -16.84,16.85l-151.57 0 0 151.57c0,9.29 -7.55,16.84 -16.85,16.84 -9.3,0 -16.84,-7.54 -16.84,-16.84l0 -151.57 -151.57 0c-9.29,0 -16.84,-7.55 -16.84,-16.85 0,-9.3 7.54,-16.84 16.84,-16.84l151.57 0 0 -151.57z"/>
 </g>
</svg>
